<svg width="355" height="82" viewBox="0 0 355 82" fill="none" xmlns="http://www.w3.org/2000/svg">
<g clip-path="url(#clip0_2_4)">
<path d="M69.0602 62.5042C67.0857 66.5249 64.4289 70.035 61.1181 73.01C57.6618 76.1188 53.7291 78.4535 49.32 79.9937C46.4936 80.9786 43.6107 81.6231 40.643 81.8744C36.9526 82.1905 33.3066 81.9149 29.6969 81.0313C26.5637 80.2652 23.6081 79.0898 20.7494 77.6023C18.2663 76.3093 16.0415 74.6799 13.9217 72.8803C13.2474 72.3048 12.561 71.7414 11.9231 71.1212C7.98233 67.295 4.9783 62.8001 2.90698 57.7295C1.23135 53.6236 0.290568 49.3232 0.0563836 44.8566C-0.222216 39.5834 0.51264 34.4764 2.2448 29.5153C3.94062 24.6474 6.42379 20.2051 9.69834 16.2249C13.199 11.9731 17.2932 8.42657 22.0819 5.68662C26.3981 3.21823 31.0011 1.53616 35.8624 0.55934C37.0495 0.320202 38.2568 0.170234 39.5125 0L33.989 10.2748C33.9284 10.2951 33.8638 10.3194 33.7952 10.3356C29.1195 11.7056 24.8396 13.8457 21.0079 16.9018C15.8235 21.036 12.0563 26.1836 9.75487 32.4133C8.75756 35.1168 8.14384 37.8973 7.88543 40.775C7.59068 44.0946 7.83697 47.3412 8.55568 50.5878C9.1694 53.3602 10.1748 55.9542 11.4466 58.4794C13.0617 61.6814 15.2219 64.4619 17.7818 66.9181C21.7508 70.7281 26.4143 73.3708 31.7521 74.6921C37.8449 76.1999 43.8086 75.673 49.6107 73.2492C52.647 71.9805 55.3725 70.2458 57.8152 68.0408C62.5958 63.7201 65.6241 58.3942 66.7748 52.0551C67.4007 48.5977 67.2553 45.1322 66.3953 41.6911C65.4747 37.9946 63.8112 34.7074 61.5339 31.6716C59.0387 28.3439 55.8085 25.9769 52.1342 24.2137C48.5125 22.4749 44.6323 21.6805 40.6188 22.0331C34.0253 22.6127 28.5179 25.4418 24.2986 30.5934C20.3134 35.4573 18.5974 41.0507 19.4372 47.3372C19.9782 51.3741 21.662 54.9166 24.2299 58.0659C26.5193 60.8707 29.4425 62.8041 32.7534 64.0484C37.9782 66.0102 43.2231 65.7548 48.1248 63.0635C53.5313 60.0925 56.9754 55.5449 57.8556 49.2827C58.5259 44.4999 57.1975 40.2481 54.2782 36.4665C52.542 34.217 50.3617 32.5025 47.7574 31.3919C44.9593 30.2003 42.0562 29.8396 39.0239 30.407C35.6525 31.0393 32.7777 32.543 30.4318 35.0276C28.2958 37.2893 26.9675 39.9887 26.5718 43.0975C26.1599 46.3482 26.8665 49.3232 28.5502 52.1848C28.8975 52.7725 29.0549 53.0521 31.4695 56.0393C30.1047 54.9004 29.1518 53.806 28.312 52.5495C27.1532 50.8107 26.1922 48.2978 25.9782 46.1698C25.6835 43.2475 26.2447 40.5156 27.5448 37.9216C29.8665 33.2888 33.7023 30.5691 38.6323 29.3937C41.6646 28.6682 44.6807 28.8911 47.6524 29.9855C50.2123 30.9299 52.429 32.3566 54.3267 34.2697C57.4155 37.3866 59.2567 41.1723 59.7008 45.5456C60.2055 50.5351 58.8489 55.0706 55.8731 59.0873C52.643 63.4445 48.3671 66.2574 43.0656 67.3477C38.7857 68.2273 34.6027 67.7733 30.5489 66.0467C24.9365 63.6634 20.8827 59.6467 18.2097 54.2316C16.9419 51.6619 16.2313 48.8814 16.0213 45.9956C15.3793 37.3177 18.6781 30.2976 24.9688 24.5461C28.0294 21.7494 31.6108 19.8525 35.5677 18.7338C38.6565 17.8583 41.8261 17.5462 45.0562 17.83C50.0266 18.2677 54.569 19.889 58.6874 22.6695C62.931 25.5351 66.3267 29.2316 68.7452 33.763C70.9013 37.8041 72.149 42.1531 72.3872 46.7332C72.6698 52.2658 71.5151 57.5309 69.0682 62.5082L69.0602 62.5042Z" fill="#03228C"/>
<path d="M120.339 63.9552C118.32 66.4196 115.429 67.7409 112.053 67.7409C107.495 67.7409 104.293 66.0669 99.5568 61.0491C91.1383 59.9912 85.2191 53.6115 85.2191 45.2457C85.2191 36.0896 92.3213 29.3127 102.012 29.3127C111.702 29.3127 118.804 36.049 118.804 45.2457C118.804 52.4644 114.375 58.1876 107.842 60.2993C109.332 61.8841 110.648 62.4556 112.183 62.4556C114.068 62.4556 115.736 61.7057 117.181 60.1655L120.339 63.9512V63.9552ZM102.012 55.1071C107.491 55.1071 111.613 51.1026 111.613 45.2457C111.613 39.3889 107.491 35.3843 102.012 35.3843C96.5326 35.3843 92.4101 39.3889 92.4101 45.2457C92.4101 51.1026 96.5326 55.1071 102.012 55.1071ZM147.436 36.9732V60.6559H140.947V57.839C139.15 59.9061 136.518 61.0086 133.623 61.0086C127.703 61.0086 123.537 57.6647 123.537 50.3568V36.9772H130.376V49.3476C130.376 53.3075 132.129 55.0706 135.157 55.0706C138.185 55.0706 140.596 53.0441 140.596 48.6869V36.9772H147.436V36.9732ZM176.769 50.75H158.923C159.581 53.7007 162.08 55.5043 165.674 55.5043C168.173 55.5043 169.97 54.7545 171.593 53.2143L175.231 57.1743C173.038 59.6832 169.752 61.0045 165.496 61.0045C157.34 61.0045 152.034 55.8529 152.034 48.8125C152.034 41.7721 157.429 36.6205 164.62 36.6205C171.811 36.6205 176.898 41.2858 176.898 48.9017C176.898 49.4286 176.81 50.1785 176.765 50.75H176.769ZM158.834 46.7454H170.454C169.974 43.7542 167.737 41.8167 164.668 41.8167C161.6 41.8167 159.318 43.7096 158.838 46.7454H158.834ZM179.18 58.4551L181.461 53.5264C183.565 54.8923 186.766 55.8164 189.661 55.8164C192.819 55.8164 194.002 54.9815 194.002 53.6601C194.002 49.7853 179.753 53.7493 179.753 44.2851C179.753 39.7942 183.787 36.6246 190.671 36.6246C193.917 36.6246 197.511 37.3744 199.748 38.6917L197.466 43.5758C195.141 42.2545 192.819 41.8167 190.671 41.8167C187.602 41.8167 186.286 42.7854 186.286 44.0176C186.286 48.0667 200.535 44.1514 200.535 53.4818C200.535 57.8836 196.457 61.0086 189.399 61.0086C185.41 61.0086 181.376 59.9102 179.184 58.4551H179.18ZM219.956 59.5089C218.555 60.5222 216.492 61.0045 214.388 61.0045C208.82 61.0045 205.574 58.143 205.574 52.509V42.7814H201.936V37.5001H205.574V31.7324H212.414V37.5001H218.289V42.7814H212.414V52.4199C212.414 54.4465 213.508 55.5449 215.353 55.5449C216.363 55.5449 217.372 55.2368 218.115 54.6653L219.956 59.5048V59.5089ZM252.229 60.6559L252.185 42.1694L243.153 57.3972H239.951L230.963 42.5625V60.6519H224.297V29.8396H230.171L241.659 48.9868L252.972 29.8396H258.803L258.891 60.6519H252.225L252.229 60.6559ZM288.661 50.75H270.815C271.473 53.7007 273.972 55.5043 277.566 55.5043C280.065 55.5043 281.862 54.7545 283.485 53.2143L287.123 57.1743C284.93 59.6832 281.644 61.0045 277.388 61.0045C269.232 61.0045 263.926 55.8529 263.926 48.8125C263.926 41.7721 269.321 36.6205 276.512 36.6205C283.703 36.6205 288.79 41.2858 288.79 48.9017C288.79 49.4286 288.701 50.1785 288.657 50.75H288.661ZM270.73 46.7454H282.35C281.87 43.7542 279.633 41.8167 276.564 41.8167C273.496 41.8167 271.214 43.7096 270.734 46.7454H270.73ZM293.571 47.098V29.8436H300.673V46.8346C300.673 52.6874 303.217 55.1112 307.513 55.1112C311.809 55.1112 314.353 52.6914 314.353 46.8346V29.8436H321.37V47.098C321.37 56.165 316.198 61.1829 307.473 61.1829C298.747 61.1829 293.575 56.165 293.575 47.098H293.571ZM355 41.0223C355 47.8884 349.868 52.1605 341.672 52.1605H335.49V60.6559H328.388V29.8436H341.672C349.872 29.8436 355 34.1116 355 41.0223ZM347.809 41.0223C347.809 37.6338 345.616 35.6518 341.276 35.6518H335.49V46.3482H341.276C345.616 46.3482 347.809 44.3662 347.809 41.0223Z" fill="url(#paint0_linear_2_4)"/>
</g>
<defs>
<linearGradient id="paint0_linear_2_4" x1="85.2191" y1="48.5288" x2="355" y2="48.5288" gradientUnits="userSpaceOnUse">
<stop offset="0.2" stop-color="#24A306"/>
<stop offset="0.8" stop-color="#03228C"/>
</linearGradient>
<clipPath id="clip0_2_4">
<rect width="355" height="82" fill="white"/>
</clipPath>
</defs>
</svg>
