<svg width="355" height="82" fill="none" xmlns="http://www.w3.org/2000/svg"><g clip-path="url(#a)"><path d="M69.06 62.504a34.396 34.396 0 0 1-7.942 10.506 34.485 34.485 0 0 1-11.798 6.984c-2.826.985-5.71 1.63-8.677 1.88a33.64 33.64 0 0 1-10.946-.843c-3.133-.766-6.089-1.941-8.948-3.429-2.483-1.293-4.707-2.922-6.827-4.722-.675-.575-1.361-1.139-1.999-1.759-3.94-3.826-6.945-8.32-9.016-13.391C1.231 53.623.291 49.323.057 44.857a39.723 39.723 0 0 1 2.188-15.342 43.072 43.072 0 0 1 7.453-13.29c3.501-4.252 7.595-7.798 12.384-10.538 4.316-2.469 8.92-4.15 13.78-5.128C37.05.32 38.257.17 39.512 0L33.99 10.275c-.06.02-.125.044-.194.06-4.676 1.37-8.955 3.51-12.787 6.567-5.184 4.134-8.952 9.282-11.253 15.511a32.379 32.379 0 0 0-1.87 8.362c-.294 3.32-.048 6.566.67 9.813.614 2.772 1.62 5.366 2.892 7.891 1.615 3.202 3.775 5.983 6.335 8.44 3.969 3.81 8.632 6.452 13.97 7.773 6.093 1.508 12.057.981 17.859-1.443a28.604 28.604 0 0 0 8.204-5.208c4.78-4.32 7.81-9.647 8.96-15.986.626-3.457.48-6.923-.38-10.364-.92-3.696-2.584-6.984-4.861-10.02-2.495-3.327-5.725-5.694-9.4-7.457-3.621-1.74-7.502-2.534-11.515-2.18-6.594.579-12.101 3.408-16.32 8.56-3.986 4.863-5.702 10.457-4.862 16.743.541 4.037 2.225 7.58 4.793 10.729 2.29 2.805 5.212 4.738 8.523 5.982 5.225 1.962 10.47 1.707 15.372-.985 5.406-2.97 8.85-7.518 9.73-13.78.67-4.783-.657-9.035-3.577-12.816-1.736-2.25-3.916-3.965-6.52-5.075-2.799-1.192-5.702-1.552-8.734-.985-3.371.632-6.246 2.136-8.592 4.62-2.136 2.262-3.464 4.962-3.86 8.07-.412 3.251.294 6.226 1.978 9.088.348.587.505.867 2.92 3.854-1.365-1.139-2.318-2.233-3.158-3.49-1.159-1.738-2.12-4.251-2.334-6.38-.295-2.921.267-5.653 1.567-8.247 2.321-4.633 6.157-7.353 11.087-8.528 3.033-.726 6.049-.503 9.02.591a18.096 18.096 0 0 1 6.675 4.285c3.089 3.117 4.93 6.902 5.374 11.276.505 4.99-.852 9.525-3.828 13.541-3.23 4.357-7.506 7.17-12.807 8.26-4.28.88-8.463.426-12.517-1.3-5.613-2.384-9.666-6.4-12.34-11.815-1.267-2.57-1.978-5.35-2.188-8.236-.642-8.678 2.657-15.698 8.948-21.45 3.06-2.797 6.642-4.694 10.599-5.812a26.157 26.157 0 0 1 9.488-.904c4.97.438 9.513 2.059 13.631 4.84 4.244 2.865 7.64 6.562 10.058 11.093 2.156 4.041 3.404 8.39 3.642 12.97.283 5.533-.872 10.798-3.319 15.775l-.008-.004Z" fill="#03228C"/><path d="M120.339 63.955c-2.019 2.465-4.91 3.786-8.286 3.786-4.558 0-7.76-1.674-12.496-6.692-8.419-1.058-14.338-7.438-14.338-15.803 0-9.156 7.102-15.933 16.793-15.933 9.69 0 16.792 6.736 16.792 15.933 0 7.218-4.429 12.942-10.962 15.053 1.49 1.585 2.806 2.157 4.341 2.157 1.885 0 3.553-.75 4.998-2.29l3.158 3.785v.004Zm-18.327-8.848c5.479 0 9.601-4.004 9.601-9.861 0-5.857-4.122-9.862-9.601-9.862-5.48 0-9.602 4.005-9.602 9.862s4.123 9.861 9.602 9.861Zm45.424-18.134v23.683h-6.489v-2.817c-1.797 2.067-4.429 3.17-7.324 3.17-5.92 0-10.086-3.344-10.086-10.652v-13.38h6.839v12.37c0 3.96 1.753 5.724 4.781 5.724 3.028 0 5.439-2.027 5.439-6.384v-11.71h6.84v-.004Zm29.333 13.777h-17.846c.658 2.95 3.157 4.754 6.751 4.754 2.499 0 4.296-.75 5.919-2.29l3.638 3.96c-2.193 2.51-5.479 3.83-9.735 3.83-8.156 0-13.462-5.151-13.462-12.191 0-7.04 5.395-12.193 12.586-12.193 7.191 0 12.278 4.666 12.278 12.282 0 .527-.088 1.276-.133 1.848h.004Zm-17.935-4.005h11.62c-.48-2.99-2.717-4.928-5.786-4.928-3.068 0-5.35 1.893-5.83 4.928h-.004Zm20.346 11.71 2.281-4.929c2.104 1.366 5.305 2.29 8.2 2.29 3.158 0 4.341-.835 4.341-2.156 0-3.875-14.249.09-14.249-9.375 0-4.49 4.034-7.66 10.918-7.66 3.246 0 6.84.75 9.077 2.067l-2.282 4.884c-2.325-1.322-4.647-1.76-6.795-1.76-3.069 0-4.385.97-4.385 2.202 0 4.049 14.249.133 14.249 9.464 0 4.402-4.078 7.527-11.136 7.527-3.989 0-8.023-1.099-10.215-2.554h-.004Zm40.776 1.054c-1.401 1.013-3.464 1.495-5.568 1.495-5.568 0-8.814-2.861-8.814-8.495v-9.728h-3.638v-5.28h3.638v-5.769h6.84V37.5h5.875v5.281h-5.875v9.639c0 2.026 1.094 3.125 2.939 3.125 1.01 0 2.019-.308 2.762-.88l1.841 4.84v.004Zm32.273 1.147-.044-18.487-9.032 15.228h-3.202l-8.988-14.834v18.089h-6.666V29.84h5.874l11.488 19.147 11.313-19.147h5.831l.088 30.812h-6.666l.004.004Zm36.432-9.906h-17.846c.658 2.95 3.157 4.754 6.751 4.754 2.499 0 4.296-.75 5.919-2.29l3.638 3.96c-2.193 2.51-5.479 3.83-9.735 3.83-8.156 0-13.462-5.151-13.462-12.191 0-7.04 5.395-12.193 12.586-12.193 7.191 0 12.278 4.666 12.278 12.282 0 .527-.089 1.276-.133 1.848h.004Zm-17.931-4.005h11.62c-.48-2.99-2.717-4.928-5.786-4.928-3.068 0-5.35 1.893-5.83 4.928h-.004Zm22.841.353V29.844h7.102v16.99c0 5.853 2.544 8.277 6.84 8.277 4.296 0 6.84-2.42 6.84-8.276V29.844h7.017v17.254c0 9.067-5.172 14.085-13.897 14.085-8.726 0-13.898-5.018-13.898-14.085h-.004ZM355 41.022c0 6.866-5.132 11.139-13.328 11.139h-6.182v8.495h-7.102V29.844h13.284c8.2 0 13.328 4.268 13.328 11.178Zm-7.191 0c0-3.388-2.193-5.37-6.533-5.37h-5.786v10.696h5.786c4.34 0 6.533-1.982 6.533-5.326Z" fill="url(#b)"/></g><defs><linearGradient id="b" x1="85.219" y1="48.529" x2="355" y2="48.529" gradientUnits="userSpaceOnUse"><stop offset=".2" stop-color="#24A306"/><stop offset=".8" stop-color="#03228C"/></linearGradient><clipPath id="a"><path fill="#fff" d="M0 0h355v82H0z"/></clipPath></defs></svg>